<svg width="40" height="38" viewBox="0 0 40 38" fill="none" xmlns="http://www.w3.org/2000/svg">
<path d="M20.5938 7.12908C20.2517 6.83393 19.7483 6.83393 19.4063 7.12908L5.70498 18.9467C5.50526 19.1187 5.38989 19.3704 5.38989 19.636V36.7262C5.38989 37.2298 5.79691 37.6359 6.2988 37.6359H33.7014C34.2031 37.6359 34.6103 37.2296 34.6103 36.7262V19.636C34.6103 19.3703 34.4949 19.1185 34.2952 18.9467L20.5938 7.12908ZM32.7918 35.8182H7.20841V20.0509L20.0001 9.01623L32.7918 20.0509V35.8182Z" fill="#19BCE4"/>
<path d="M39.3667 16.4382L21.1855 0.802854C20.5032 0.217733 19.4962 0.217733 18.814 0.802854L0.632553 16.4382C-0.128707 17.0926 -0.215444 18.2403 0.43901 19.0024C1.09529 19.7628 2.24279 19.8497 3.00321 19.1951L19.9996 4.57884L36.9961 19.1951C37.3398 19.4904 37.7608 19.6362 38.1801 19.6362C38.6922 19.6362 39.2008 19.4209 39.5603 19.0024C40.2149 18.2403 40.128 17.0926 39.3667 16.4382Z" fill="#19BCE4"/>
<path d="M15.5893 17.3579C13.3567 17.3579 10.8445 18.5784 10.4904 22.0003C9.78024 28.863 19.3775 34.0054 19.7855 34.2224C19.8523 34.2571 19.9253 34.2745 19.9982 34.2745C20.0703 34.2745 20.144 34.2571 20.2109 34.2224C20.6189 34.0054 30.2161 28.863 29.5077 22.0003C29.1545 18.5784 26.6415 17.3579 24.408 17.3579C22.8255 17.3579 21.2074 17.9186 19.9983 18.87C18.7889 17.9186 17.1701 17.3579 15.5893 17.3579Z" fill="#19BCE4"/>
</svg>
